<svg width="288" height="360" viewBox="0 0 288 360" fill="none" xmlns="http://www.w3.org/2000/svg">
<g clipPath="url(#clip0_11_614)">
<path d="M288 16V300C288 304.243 286.314 308.313 283.314 311.314C280.313 314.314 276.243 316 272 316H268C261.635 316 255.53 318.529 251.029 323.029C246.529 327.53 244 333.635 244 340V344C244 348.243 242.314 352.313 239.314 355.314C236.313 358.314 232.243 360 228 360H16C11.7565 360 7.68687 358.314 4.68629 355.314C1.68571 352.313 0 348.243 0 344V16C0 11.7565 1.68571 7.68687 4.68629 4.68629C7.68687 1.68571 11.7565 0 16 0L272 0C276.243 0 280.313 1.68571 283.314 4.68629C286.314 7.68687 288 11.7565 288 16Z" fill="black"/>
</g>
<defs>
<clipPath id="clip0_11_614">
<rect width="288" height="360" fill="white"/>
</clipPath>
</defs>
</svg>
